<?xml version="1.0" encoding="UTF-8" standalone="no"?>
<svg width="900px" height="900px" viewBox="0 0 900 900" version="1.1" xmlns="http://www.w3.org/2000/svg" xmlns:xlink="http://www.w3.org/1999/xlink" xmlns:sketch="http://www.bohemiancoding.com/sketch/ns">
    <title>Evendate</title>
    <defs></defs>
    <g id="Page-1" stroke="none" stroke-width="1" fill="none" fill-rule="evenodd" sketch:type="MSPage">
        <g id="iTunesArtwork@2x-Copy-5" sketch:type="MSArtboardGroup" transform="translate(-62.000000, -62.000000)">
            <g id="Icon-Shape-+-evendate-+-icon" sketch:type="MSLayerGroup" transform="translate(62.000000, 62.000000)">
                <g id="evendate" transform="translate(50.000000, 50.000000)"></g>
                <g id="icon" sketch:type="MSShapeGroup">
                    <circle id="Oval-1" fill="#FFFFFF" cx="450" cy="450" r="450"></circle>
                    <g id="#5379b8ff" transform="translate(50.000000, 50.000000)" fill="#5379B8">
                        <path d="M411.985004,0.195770169 C497.882379,2.1501829 582.616701,33.3702415 649.652388,87.0155013 C668.750058,102.566561 686.971224,119.28016 703.422527,137.628052 C730.661569,170.768826 754.411451,207.178188 770.525637,247.092013 C798.202931,313.18823 807.052249,386.849372 796.972455,457.713682 C787.600606,523.675111 761.238068,587.075587 721.222297,640.333334 C692.415661,678.646562 656.9004,711.922124 616.564368,737.85179 C573.329131,765.533687 524.767448,784.909331 474.267343,794.209639 C402.630011,807.536712 327.334961,801.252265 259.186788,775.305751 C248.247346,770.369174 235.689743,768.482155 226.840425,759.737842 C240.392523,740.530683 253.270387,720.801223 265.811134,700.90328 C279.177818,682.01624 291.179178,662.202538 304.191888,643.062772 C308.759822,635.919056 313.580593,628.943825 318.114815,621.783261 C320.188083,618.784248 322.160217,615.246087 325.784223,613.915065 C328.71714,613.426462 331.076958,615.599903 333.470487,616.914078 C371.699539,641.664356 409.60833,666.869541 447.904805,691.485032 C455.843907,696.286822 466.142827,697.803177 474.773018,694.01229 C483.049237,689.884436 490.145547,683.482049 495.303435,675.816034 C501.691799,667.18966 507.372218,658.040987 511.721026,648.235226 C517.553147,635.413605 521.379424,621.614777 522.559333,607.580072 C522.40763,595.80305 524.211205,583.554274 520.148947,572.21531 C516.00241,559.764353 509.630901,548.223209 503.748212,536.564126 C496.972163,524.264805 488.577953,512.740509 483.538056,499.565072 C481.363653,494.224133 484.886524,489.001134 487.954287,484.873279 C522.441342,440.730509 556.928396,396.57089 591.90427,352.815633 C598.343202,345.217011 603.98991,336.893908 611.237922,329.98607 C610.614256,328.890925 619.295015,324.847313 621.284004,326.161487 C639.066919,334.973192 659.69847,339.168441 679.352383,335.225918 C693.039327,331.148609 704.046193,321.140668 712.69324,310.121824 C721.643693,299.776915 730.004191,286.601477 727.543238,272.297198 C726.498176,264.614334 720.851468,258.784793 715.103626,254.100942 C692.196535,235.045417 667.502725,218.281274 642.977474,201.399191 C590.791785,165.882794 537.443042,132.101781 483.099805,100.022455 C458.338571,85.6676304 433.358212,71.6329252 407.686764,58.9629392 C400.539886,55.239446 391.791704,57.5813716 385.875303,62.5516454 C376.554022,70.1671157 370.789324,81.1017179 365.867417,91.8846847 C360.962367,104.032371 357.0181,117.71326 361.198349,130.669668 C366.676498,147.113693 376.975418,161.771788 390.089264,173.043358 C393.797549,175.587465 392.836766,180.625132 390.847777,183.961112 C356.866397,241.666833 324.604314,300.366608 290.370097,357.920694 C289.089053,359.993045 287.673162,361.964306 286.274127,363.969264 C278.284458,366.850338 270.159942,363.261632 262.13656,362.486606 C241.302739,360.4648 220.570052,356.168462 199.550816,357.381545 C189.403598,357.044578 179.795768,360.633284 170.693613,364.693745 C170.120514,364.912774 168.974317,365.333983 168.401218,365.553012 C150.534025,371.83746 135.936865,384.57484 122.3342,397.329068 C110.720524,409.139786 99.781082,422.820675 96.0559407,439.332093 C94.0500954,450.300392 96.4267693,463.610617 106.253726,470.232032 C148.781017,497.172601 190.802633,524.871347 233.397348,551.677128 C237.830435,553.85057 235.656031,559.444234 233.953591,562.763366 C216.693208,591.489864 198.84287,619.862545 181.666767,648.639588 C169.429425,667.004328 158.237145,686.026155 146.910019,704.946892 C139.544015,705.839857 135.245775,699.218441 129.599068,695.848764 C116.04697,685.318523 106.220014,671.014244 94.2523655,658.832861 C81.762186,643.618769 70.1316544,627.663348 59.7147435,610.932901 C17.0863169,541.837671 -4.13518927,459.617549 0.668725948,378.526269 C3.88819193,316.911723 21.8902321,256.173293 52.3993077,202.56173 C96.0727966,125.817333 165.63686,64.0006065 247.387698,30.3712288 C299.303694,8.87268877 355.821335,-1.59015871 411.985004,0.195770169 Z" id="Shape"></path>
                    </g>
                </g>
            </g>
        </g>
    </g>
</svg>