<?xml version="1.0" encoding="iso-8859-1"?>
<!-- Generator: Adobe Illustrator 17.1.0, SVG Export Plug-In . SVG Version: 6.00 Build 0)  -->
<!DOCTYPE svg PUBLIC "-//W3C//DTD SVG 1.1//EN" "http://www.w3.org/Graphics/SVG/1.1/DTD/svg11.dtd">
<svg xmlns="http://www.w3.org/2000/svg" xmlns:xlink="http://www.w3.org/1999/xlink" version="1.1" id="Capa_1" x="0px" y="0px" viewBox="0 0 464.994 464.994" style="enable-background:new 0 0 464.994 464.994;" xml:space="preserve" width="512px" height="512px">
<g>
	<path d="M251.268,354.892c0,10.251-8.34,18.591-18.591,18.591s-18.591-8.34-18.591-18.591c0-4.142-3.357-7.5-7.5-7.5   s-7.5,3.358-7.5,7.5c0,18.522,15.068,33.591,33.591,33.591s33.591-15.069,33.591-33.591c0-4.142-3.357-7.5-7.5-7.5   S251.268,350.75,251.268,354.892z" fill="#00dc88"/>
	<path d="M110.542,317.392c-4.143,0-7.5,3.358-7.5,7.5s3.357,7.5,7.5,7.5h244.271c4.143,0,7.5-3.358,7.5-7.5s-3.357-7.5-7.5-7.5   h-12.5V195.334c0-57.932-45.168-105.506-102.136-109.374V63.199c0-4.142-3.357-7.5-7.5-7.5s-7.5,3.358-7.5,7.5V85.96   c-56.968,3.868-102.135,51.442-102.135,109.374v88.629c0,0.007-0.001,0.013-0.001,0.019s0.001,0.013,0.001,0.019v33.39H110.542z    M138.042,291.482h166.771c4.143,0,7.5-3.358,7.5-7.5s-3.357-7.5-7.5-7.5H138.042v-81.148c0-52.182,42.453-94.635,94.635-94.635   c52.183,0,94.636,42.453,94.636,94.635v122.058H138.042V291.482z" fill="#00dc88"/>
	<path d="M396.896,68.091C354.893,26.088,299.08,1.947,239.738,0.113C180.666-1.701,123.729,18.67,79.417,57.507   c-3.115,2.73-3.427,7.468-0.697,10.583c2.732,3.116,7.471,3.428,10.584,0.697c85.789-75.188,216.24-70.835,296.984,9.91   c41.081,41.08,63.705,95.699,63.705,153.795c0,58.097-22.624,112.716-63.705,153.796c-41.08,41.081-95.699,63.704-153.796,63.704   c-58.096,0-112.715-22.624-153.795-63.704C-2.047,305.543-6.4,175.092,68.789,89.304c2.729-3.115,2.418-7.854-0.697-10.583   s-7.854-2.418-10.584,0.697c-38.836,44.312-59.22,101.248-57.395,160.32c1.834,59.342,25.976,115.155,67.978,157.158   c43.914,43.914,102.3,68.098,164.402,68.098c62.104,0,120.489-24.184,164.403-68.098c43.913-43.913,68.098-102.299,68.098-164.402   C464.994,170.389,440.809,112.004,396.896,68.091z" fill="#00dc88"/>
</g>
<g>
</g>
<g>
</g>
<g>
</g>
<g>
</g>
<g>
</g>
<g>
</g>
<g>
</g>
<g>
</g>
<g>
</g>
<g>
</g>
<g>
</g>
<g>
</g>
<g>
</g>
<g>
</g>
<g>
</g>
</svg>
