<?xml version="1.0" encoding="UTF-8"?>
<svg width="80px" height="80px" viewBox="0 0 80 80" version="1.1" xmlns="http://www.w3.org/2000/svg" xmlns:xlink="http://www.w3.org/1999/xlink">
    <!-- Generator: Sketch 46.2 (44496) - http://www.bohemiancoding.com/sketch -->
    <title>browser</title>
    <desc>Created with Sketch.</desc>
    <defs></defs>
    <g id="Page-1" stroke="none" stroke-width="1" fill="none" fill-rule="evenodd">
        <g id="Artboard" transform="translate(-253.000000, -233.000000)" fill-rule="nonzero" fill="#00DC88">
            <g id="browser" transform="translate(253.000000, 233.000000)">
                <path d="M78.7096774,0 L1.29032258,0 C0.577548387,0 0,0.617563218 0,1.37931034 L0,78.6206897 C0,79.3824368 0.577548387,80 1.29032258,80 L78.7096774,80 C79.4224516,80 80,79.3824368 80,78.6206897 L80,1.37931034 C80,0.617563218 79.4224516,0 78.7096774,0 Z M77.4193548,2.75862069 L77.4193548,9.1954023 L2.58064516,9.1954023 L2.58064516,2.75862069 L77.4193548,2.75862069 Z M2.58064516,77.2413793 L2.58064516,11.954023 L77.4193548,11.954023 L77.4193548,77.2413793 L2.58064516,77.2413793 Z" id="Shape"></path>
                <path d="M67.0967742,7.44827586 C67.8556559,7.44827586 68.4731183,6.78822989 68.4731183,5.97701149 C68.4731183,5.1657931 67.8556559,4.50574713 67.0967742,4.50574713 C66.3378925,4.50574713 65.7204301,5.1657931 65.7204301,5.97701149 C65.7204301,6.78822989 66.3378925,7.44827586 67.0967742,7.44827586 Z" id="Shape"></path>
                <path d="M73.1182796,7.44827586 C73.8771613,7.44827586 74.4946237,6.78822989 74.4946237,5.97701149 C74.4946237,5.1657931 73.8771613,4.50574713 73.1182796,4.50574713 C72.3593978,4.50574713 71.7419355,5.1657931 71.7419355,5.97701149 C71.7419355,6.78822989 72.3593978,7.44827586 73.1182796,7.44827586 Z" id="Shape"></path>
                <path d="M61.0752688,7.44827586 C61.8341505,7.44827586 62.4516129,6.78822989 62.4516129,5.97701149 C62.4516129,5.1657931 61.8341505,4.50574713 61.0752688,4.50574713 C60.3163871,4.50574713 59.6989247,5.1657931 59.6989247,5.97701149 C59.6989247,6.78822989 60.3163871,7.44827586 61.0752688,7.44827586 Z" id="Shape"></path>
                <path d="M68.3870968,28.5057471 L11.6129032,28.5057471 C10.900129,28.5057471 10.3225806,29.1233103 10.3225806,29.8850575 C10.3225806,30.6468046 10.900129,31.2643678 11.6129032,31.2643678 L68.3870968,31.2643678 C69.099871,31.2643678 69.6774194,30.6468046 69.6774194,29.8850575 C69.6774194,29.1233103 69.099871,28.5057471 68.3870968,28.5057471 Z" id="Shape"></path>
                <path d="M68.3870968,21.1494253 L11.6129032,21.1494253 C10.900129,21.1494253 10.3225806,21.7669885 10.3225806,22.5287356 C10.3225806,23.2904828 10.900129,23.908046 11.6129032,23.908046 L68.3870968,23.908046 C69.099871,23.908046 69.6774194,23.2904828 69.6774194,22.5287356 C69.6774194,21.7669885 69.099871,21.1494253 68.3870968,21.1494253 Z" id="Shape"></path>
                <path d="M36.5591398,43.2183908 L11.6129032,43.2183908 C10.900129,43.2183908 10.3225806,43.835954 10.3225806,44.5977011 C10.3225806,45.3594483 10.900129,45.9770115 11.6129032,45.9770115 L36.5591398,45.9770115 C37.271914,45.9770115 37.8494624,45.3594483 37.8494624,44.5977011 C37.8494624,43.835954 37.271914,43.2183908 36.5591398,43.2183908 Z" id="Shape"></path>
                <path d="M36.5591398,35.862069 L11.6129032,35.862069 C10.900129,35.862069 10.3225806,36.4796322 10.3225806,37.2413793 C10.3225806,38.0031264 10.900129,38.6206897 11.6129032,38.6206897 L36.5591398,38.6206897 C37.271914,38.6206897 37.8494624,38.0031264 37.8494624,37.2413793 C37.8494624,36.4796322 37.271914,35.862069 36.5591398,35.862069 Z" id="Shape"></path>
                <path d="M36.5591398,50.5747126 L11.6129032,50.5747126 C10.900129,50.5747126 10.3225806,51.1922759 10.3225806,51.954023 C10.3225806,52.7157701 10.900129,53.3333333 11.6129032,53.3333333 L36.5591398,53.3333333 C37.271914,53.3333333 37.8494624,52.7157701 37.8494624,51.954023 C37.8494624,51.1922759 37.271914,50.5747126 36.5591398,50.5747126 Z" id="Shape"></path>
                <path d="M36.5591398,57.9310345 L11.6129032,57.9310345 C10.900129,57.9310345 10.3225806,58.5485977 10.3225806,59.3103448 C10.3225806,60.072092 10.900129,60.6896552 11.6129032,60.6896552 L36.5591398,60.6896552 C37.271914,60.6896552 37.8494624,60.072092 37.8494624,59.3103448 C37.8494624,58.5485977 37.271914,57.9310345 36.5591398,57.9310345 Z" id="Shape"></path>
                <path d="M68.3870968,35.862069 L43.4408602,35.862069 C42.728086,35.862069 42.1505376,36.4796322 42.1505376,37.2413793 L42.1505376,41.8390805 C42.1505376,42.6008276 42.728086,43.2183908 43.4408602,43.2183908 C44.1536344,43.2183908 44.7311828,42.6008276 44.7311828,41.8390805 L44.7311828,38.6206897 L67.0967742,38.6206897 L67.0967742,65.2873563 L44.7311828,65.2873563 L44.7311828,47.3563218 C44.7311828,46.5945747 44.1536344,45.9770115 43.4408602,45.9770115 C42.728086,45.9770115 42.1505376,46.5945747 42.1505376,47.3563218 L42.1505376,66.6666667 C42.1505376,67.4284138 42.728086,68.045977 43.4408602,68.045977 L68.3870968,68.045977 C69.099871,68.045977 69.6774194,67.4284138 69.6774194,66.6666667 L69.6774194,37.2413793 C69.6774194,36.4796322 69.099871,35.862069 68.3870968,35.862069 Z" id="Shape"></path>
                <path d="M36.5591398,65.2873563 L11.6129032,65.2873563 C10.900129,65.2873563 10.3225806,65.9049195 10.3225806,66.6666667 C10.3225806,67.4284138 10.900129,68.045977 11.6129032,68.045977 L36.5591398,68.045977 C37.271914,68.045977 37.8494624,67.4284138 37.8494624,66.6666667 C37.8494624,65.9049195 37.271914,65.2873563 36.5591398,65.2873563 Z" id="Shape"></path>
            </g>
        </g>
    </g>
</svg>