<?xml version="1.0" encoding="UTF-8"?>
<svg width="811px" height="149px" viewBox="0 0 811 149" version="1.1" xmlns="http://www.w3.org/2000/svg" xmlns:xlink="http://www.w3.org/1999/xlink">
    <!-- Generator: Sketch 46.2 (44496) - http://www.bohemiancoding.com/sketch -->
    <title>logo</title>
    <desc>Created with Sketch.</desc>
    <defs></defs>
    <g id="Page-1" stroke="none" stroke-width="1" fill="none" fill-rule="evenodd">
        <g id="Light_logo-Copy" transform="translate(-155.000000, -485.000000)">
            <g id="logo" transform="translate(155.000000, 485.000000)">
                <path d="M50.14,43.2 C36.6754485,43.5443239 23.9058354,49.2510367 14.6676642,59.052511 C5.42949294,68.8539854 0.487699398,81.9386431 0.94,95.4 C0.241168588,109.292088 5.32848189,122.852984 14.9920797,132.85765 C24.6556774,142.862316 38.0320353,148.41675 51.94,148.2 C72.2335909,149.048016 90.6171455,136.302085 96.94,117 L74.74,109.8 C71.7809709,119.312059 62.6549973,125.528662 52.72,124.8 C39.9075124,125.156165 29.0763584,115.381708 28.12,102.6 L98.32,102.6 C98.6022078,99.8089228 98.7423886,97.005307 98.74,94.2 C98.74,62.4 80.74,43.2 50.14,43.2 Z M28,84.6 C29.1348639,73.3241404 38.878327,64.8973616 50.2,65.4 C55.7271402,64.8327733 61.2433452,66.5718074 65.4458276,70.2063868 C69.64831,73.8409662 72.1644503,79.0488252 72.4,84.6 L28,84.6 L28,84.6 Z M173.8,46.8 L150.4,112.8 L125.8,46.8 L96.4,46.8 L136.72,145.2 L163.12,145.2 L202.12,46.8 L173.92,46.8 L173.8,46.8 Z M297.4,94.2 C297.4,62.4 279.4,43.2 248.8,43.2 C235.456566,43.4305443 222.77153,49.0391715 213.621524,58.7539933 C204.471517,68.4688152 199.631839,81.4666741 200.2,94.8 C199.501169,108.692088 204.588482,122.252984 214.25208,132.25765 C223.915677,142.262316 237.292035,147.81675 251.2,147.6 C271.493591,148.448016 289.877145,135.702085 296.2,116.4 L273.4,109.8 C270.42617,119.382125 261.199729,125.616207 251.2,124.8 C238.433377,125.091116 227.674427,115.334224 226.72,102.6 L296.92,102.6 C297.222249,99.8099437 297.382456,97.0063251 297.4,94.2 L297.4,94.2 Z M227.2,84.6 C228.334864,73.3241404 238.078327,64.8973616 249.4,65.4 C254.92714,64.8327733 260.443345,66.5718074 264.645828,70.2063868 C268.84831,73.8409662 271.36445,79.0488252 271.6,84.6 L227.2,84.6 L227.2,84.6 Z M364.72,43.8 C353.334411,43.4852076 342.622685,49.1829343 336.52,58.8 L336.52,46.8 L310.72,46.8 L310.72,145.2 L337.12,145.2 L337.12,88.2 C337.12,76.8 343.72,67.8 355.72,67.8 C367.72,67.8 373.72,76.2 373.72,87.6 L373.72,145.2 L400.12,145.2 L400.12,82.8 C400,61.2 388.72,43.8 364.72,43.8 L364.72,43.8 Z M513.52,127.2 L513.52,0 L487.12,0 L487.12,56.4 C484.12,51 476.32,44.4 459.52,44.4 C431.92,44.4 412.12,67.2 412.12,96 C412.12,126 431.92,147.6 460.12,147.6 C471.13569,148.315049 481.682626,143.041581 487.72,133.8 C487.648297,137.634948 488.051358,141.464035 488.92,145.2 L514.12,145.2 C513.537176,139.218623 513.296784,133.208818 513.4,127.2 L513.52,127.2 Z M463.72,123.6 C449.32,123.6 439.12,112.8 439.12,95.4 C439.12,78 449.92,67.8 463.72,67.8 C477.52,67.8 487.72,77.4 487.72,95.4 C487.72,113.4 476.74,123.6 463.54,123.6 L463.72,123.6 Z M614.92,129.6 L614.92,81 C614.92,61.2 603.52,43.8 572.32,43.8 C545.92,43.8 531.52,60.6 530.32,76.2 L553.72,81 C554.45584,71.4267828 562.736402,64.2146806 572.32,64.8 C583.72,64.8 589.12,70.8 589.12,77.4 C589.12,81.3764502 585.89645,84.6 581.92,84.6 L557.92,88.2 C541.12,90.6 527.92,100.2 527.92,118.2 C527.92,133.8 540.52,147.6 561.52,147.6 C572.994505,148.247618 583.953391,142.768175 590.32,133.2 C590.392226,137.226023 590.793563,141.239398 591.52,145.2 L616.12,145.2 C615.290686,140.0393 614.829522,134.826144 614.74,129.6 L614.92,129.6 Z M589.12,104.4 C589.12,122.4 578.32,127.8 567.52,127.8 C564.294629,128.14146 561.076506,127.092898 558.671412,124.91686 C556.266318,122.740823 554.901976,119.643346 554.92,116.4 C554.881484,109.656657 560.182798,104.090278 566.92,103.8 L589.12,100.2 L589.12,104.4 L589.12,104.4 Z M686.92,69.6 L686.92,46.8 L667.12,46.8 L667.12,17.4 L642.52,17.4 L642.52,31.2 C642.99686,35.3587071 641.59322,39.5132927 638.691896,42.5306693 C635.790572,45.5480459 631.694204,47.1134697 627.52,46.8 L622.72,46.8 L622.72,70.2 L640.72,70.2 L640.72,115.8 C640.72,135 652.72,146.4 671.92,146.4 C677.033792,146.676031 682.147624,145.857818 686.92,144 L686.92,121.8 C684.163063,122.400414 681.334286,122.602469 678.52,122.4 C675.346669,123.018514 672.0735,122.018719 669.787391,119.732609 C667.501281,117.4465 666.501486,114.173331 667.12,111 L667.12,69.6 L686.92,69.6 L686.92,69.6 Z M790.12,94.2 C790.199741,87.4945161 789.248643,80.816593 787.3,74.4 L787.3,74.4 C770.24266,74.4059366 756.002421,61.3892651 754.48,44.4 C750.282556,43.4847822 745.995896,43.0420286 741.7,43.08 C728.356566,43.3105443 715.67153,48.9191715 706.521524,58.6339933 C697.371517,68.3488152 692.531839,81.3466741 693.1,94.68 C692.401169,108.572088 697.488482,122.132984 707.15208,132.13765 C716.815677,142.142316 730.192035,147.69675 744.1,147.48 C764.393591,148.328016 782.777145,135.582085 789.1,116.28 L766.3,109.68 C763.32617,119.262125 754.099729,125.496207 744.1,124.68 C731.287512,125.036165 720.456358,115.261708 719.5,102.48 L789.7,102.48 C789.938114,99.7267358 790.03824,96.963277 790,94.2 L790.12,94.2 Z M719.92,84.6 C721.054864,73.3241404 730.798327,64.8973616 742.12,65.4 C747.64714,64.8327733 753.163345,66.5718074 757.365828,70.2063868 C761.56831,73.8409662 764.08445,79.0488252 764.32,84.6 L719.92,84.6 L719.92,84.6 Z" id="evendate_logo_text" fill="#2E3B50"></path>
                <circle id="evendate_logo_dot" fill="#00DC88" cx="787" cy="41.4" r="24"></circle>
            </g>
        </g>
    </g>
</svg>