<?xml version="1.0" encoding="iso-8859-1"?>
<!-- Generator: Adobe Illustrator 17.1.0, SVG Export Plug-In . SVG Version: 6.00 Build 0)  -->
<!DOCTYPE svg PUBLIC "-//W3C//DTD SVG 1.1//EN" "http://www.w3.org/Graphics/SVG/1.1/DTD/svg11.dtd">
<svg xmlns="http://www.w3.org/2000/svg" xmlns:xlink="http://www.w3.org/1999/xlink" version="1.1" id="Capa_1" x="0px" y="0px" viewBox="0 0 455 455" style="enable-background:new 0 0 455 455;" xml:space="preserve" width="512px" height="512px">
<path d="M380,69.061c-4.773,0-9.427,0.814-13.93,2.361l-276.772,88.43c-9.747-11.362-22.54-17.79-35.798-17.79  c-29.5,0-53.5,31.178-53.5,69.5s24,69.5,53.5,69.5c13.259,0,26.051-6.428,35.798-17.791l29.834,9.532v7.844  c0,4.142,3.357,7.5,7.5,7.5s7.5-3.358,7.5-7.5v-3.051l120.332,38.447c-2.74,30.726-28.613,54.897-60.039,54.897  c-33.246,0-60.293-27.047-60.293-60.293c0-4.142-3.357-7.5-7.5-7.5s-7.5,3.358-7.5,7.5c0,41.517,33.776,75.293,75.293,75.293  c38.108,0,69.673-28.464,74.603-65.244l97.027,31c4.508,1.55,9.167,2.366,13.944,2.366c42.056,0,75-62.593,75-142.5  S422.056,69.061,380,69.061z M306.872,317.04C290.016,292.905,280,253.734,280,211.561c0-12.175,0.833-24.224,2.475-35.813  c0.581-4.101-2.272-7.897-6.374-8.478c-4.095-0.582-7.896,2.272-8.478,6.374c-1.74,12.284-2.623,25.042-2.623,37.918  c0,37.189,7.493,72.492,20.518,98.656l-21.027-6.718c-0.024-0.008-0.049-0.016-0.073-0.023l-135.516-43.298  c-0.023-0.007-0.045-0.015-0.068-0.022l-39.823-12.724c-0.025-0.008-0.05-0.016-0.075-0.024l-35.412-11.314  c-0.08-0.026-0.161-0.05-0.242-0.073c-2.89-0.817-8.281-9.938-8.281-24.459c0-14.522,5.392-23.643,8.281-24.459  c0.081-0.023,0.162-0.047,0.242-0.073l35.418-11.316c0.022-0.007,0.043-0.013,0.065-0.021l196.51-62.786  c-4.44,8.906-8.287,18.925-11.375,29.73c-1.139,3.982,1.167,8.134,5.149,9.272c0.689,0.197,1.383,0.291,2.065,0.291  c3.263,0,6.266-2.147,7.207-5.441c4.583-16.037,10.891-30.036,18.304-40.674l27.875-8.906C316.567,122.948,305,164.214,305,211.561  c0,47.347,11.567,88.613,29.742,114.383L306.872,317.04z M53.5,266.061c-21.229,0-38.5-24.449-38.5-54.5s17.271-54.5,38.5-54.5  c7.062,0,13.868,2.754,19.824,7.894l-24.265,7.753C37.83,175.998,30,191.94,30,211.561c0,19.622,7.831,35.564,19.061,38.853  l24.264,7.752C67.368,263.307,60.562,266.061,53.5,266.061z M380,339.061c-2.511,0-4.992-0.35-7.433-1.025  c-0.042-0.014-0.082-0.033-0.125-0.047l-2.134-0.682C342.199,327.126,320,273.681,320,211.561c0-62.128,22.205-115.58,50.319-125.75  l2.123-0.678c0.042-0.013,0.08-0.032,0.121-0.046c2.442-0.675,4.925-1.026,7.437-1.026c32.523,0,60,58.388,60,127.5  S412.523,339.061,380,339.061z" fill="#00dc88"/>
<g>
</g>
<g>
</g>
<g>
</g>
<g>
</g>
<g>
</g>
<g>
</g>
<g>
</g>
<g>
</g>
<g>
</g>
<g>
</g>
<g>
</g>
<g>
</g>
<g>
</g>
<g>
</g>
<g>
</g>
</svg>
